/* XPM */
static char * 68964_xpm[] = {
"16 16 3 1",
" 	c None",
".	c #FFFFFF",
"+	c #000000",
"................",
".........++.....",
".......++..+....",
"......+.........",
".....+..........",
".....+..........",
"....+...........",
"....+.++++......",
"....++....+.....",
"....+......+....",
"....+......+....",
"....+......+....",
".....+.....+....",
"......+...+.....",
".......+++......",
"................"};
