/* XPM */
static char * 57568_xpm[] = {
"16 16 3 1",
" 	c None",
".	c #FFFFFF",
"+	c #000000",
"................",
".......+++++....",
".....+++...+....",
"...........+....",
"..........+.....",
".........+......",
".......++++.....",
"...........++...",
"............++..",
".............+..",
"............++..",
"....+......+....",
".....++...+.....",
".......+++......",
"................",
"................"};
